<svg width="30" height="30" viewBox="0 0 30 30" fill="none" xmlns="http://www.w3.org/2000/svg">
<path d="M18.5255 5.32422C18.2773 5.76883 18.056 6.22799 17.863 6.69922C15.9665 6.39928 14.0346 6.39928 12.138 6.69922C11.945 6.22799 11.7238 5.76883 11.4755 5.32422C9.68899 5.62947 7.95226 6.17614 6.31301 6.94922C3.38168 11.1796 2.0523 16.3154 2.56301 21.4367C4.4733 22.8728 6.61733 23.9681 8.90051 24.6742C9.4204 23.9875 9.88439 23.2601 10.288 22.4992C9.5431 22.2246 8.82713 21.8771 8.15051 21.4617C8.33608 21.3382 8.51163 21.2003 8.67551 21.0492C10.6486 21.9996 12.8105 22.4931 15.0005 22.4931C17.1905 22.4931 19.3524 21.9996 21.3255 21.0492C21.5005 21.1992 21.6755 21.3367 21.8505 21.4617C21.1702 21.8738 20.4549 22.2251 19.713 22.5117C20.0999 23.2899 20.5515 24.0342 21.063 24.7367C23.3433 24.033 25.4837 22.9375 27.388 21.4992C27.911 16.377 26.5805 11.2369 23.638 7.01172C22.0172 6.22264 20.2976 5.65506 18.5255 5.32422ZM10.8505 18.5117C10.225 18.4668 9.64119 18.1813 9.22166 17.7152C8.80213 17.249 8.5795 16.6385 8.60051 16.0117C8.57633 15.3841 8.79786 14.7718 9.21802 14.305C9.63818 13.8381 10.2238 13.5536 10.8505 13.5117C11.4772 13.5536 12.0628 13.8381 12.483 14.305C12.9031 14.7718 13.1247 15.3841 13.1005 16.0117C13.1247 16.6393 12.9031 17.2516 12.483 17.7185C12.0628 18.1853 11.4772 18.4699 10.8505 18.5117ZM19.1505 18.5117C18.525 18.4668 17.9412 18.1813 17.5217 17.7152C17.1021 17.249 16.8795 16.6385 16.9005 16.0117C16.8763 15.3841 17.0979 14.7718 17.518 14.305C17.9382 13.8381 18.5238 13.5536 19.1505 13.5117C19.7783 13.5504 20.3659 13.8341 20.7867 14.3017C21.2075 14.7692 21.4279 15.3833 21.4005 16.0117C21.4279 16.6402 21.2075 17.2542 20.7867 17.7218C20.3659 18.1893 19.7783 18.473 19.1505 18.5117Z" fill="white"/>
</svg>
