<svg width="30" height="30" viewBox="0 0 30 30" fill="none" xmlns="http://www.w3.org/2000/svg">
<path d="M26.1836 10.3816C26.171 9.43484 25.9938 8.49753 25.6598 7.61156C25.3703 6.86425 24.928 6.18556 24.3613 5.61885C23.7946 5.05214 23.1159 4.60988 22.3686 4.32031C21.494 3.99201 20.5701 3.81449 19.6361 3.79531C18.4336 3.74156 18.0523 3.72656 14.9998 3.72656C11.9473 3.72656 11.5561 3.72656 10.3623 3.79531C9.42879 3.81463 8.50528 3.99215 7.63109 4.32031C6.88367 4.60967 6.20487 5.05187 5.63813 5.6186C5.0714 6.18534 4.62921 6.86414 4.33984 7.61156C4.01088 8.48548 3.83375 9.4092 3.81609 10.3428C3.76234 11.5466 3.74609 11.9278 3.74609 14.9803C3.74609 18.0328 3.74609 18.4228 3.81609 19.6178C3.83484 20.5528 4.01109 21.4753 4.33984 22.3516C4.62969 23.0988 5.07221 23.7773 5.63914 24.3438C6.20606 24.9103 6.88492 25.3523 7.63234 25.6416C8.50414 25.9831 9.42781 26.1733 10.3636 26.2041C11.5673 26.2578 11.9486 26.2741 15.0011 26.2741C18.0536 26.2741 18.4448 26.2741 19.6386 26.2041C20.5725 26.1857 21.4965 26.0086 22.3711 25.6803C23.1182 25.3904 23.7967 24.948 24.3634 24.3814C24.9301 23.8147 25.3724 23.1362 25.6623 22.3891C25.9911 21.5141 26.1673 20.5916 26.1861 19.6553C26.2398 18.4528 26.2561 18.0716 26.2561 15.0178C26.2536 11.9653 26.2536 11.5778 26.1836 10.3816ZM14.9923 20.7528C11.7998 20.7528 9.21359 18.1666 9.21359 14.9741C9.21359 11.7816 11.7998 9.19531 14.9923 9.19531C16.525 9.19531 17.9948 9.80414 19.0785 10.8879C20.1623 11.9716 20.7711 13.4414 20.7711 14.9741C20.7711 16.5067 20.1623 17.9765 19.0785 19.0603C17.9948 20.144 16.525 20.7528 14.9923 20.7528ZM21.0011 10.3291C20.8241 10.3292 20.6488 10.2945 20.4852 10.2268C20.3217 10.1592 20.1731 10.0599 20.0479 9.93476C19.9227 9.8096 19.8235 9.66098 19.7558 9.49742C19.6882 9.33386 19.6534 9.15857 19.6536 8.98156C19.6536 8.80469 19.6884 8.62955 19.7561 8.46614C19.8238 8.30273 19.923 8.15425 20.0481 8.02918C20.1732 7.90411 20.3216 7.8049 20.485 7.73721C20.6485 7.66953 20.8236 7.63469 21.0005 7.63469C21.1773 7.63469 21.3525 7.66953 21.5159 7.73721C21.6793 7.8049 21.8278 7.90411 21.9529 8.02918C22.0779 8.15425 22.1771 8.30273 22.2448 8.46614C22.3125 8.62955 22.3473 8.80469 22.3473 8.98156C22.3473 9.72656 21.7448 10.3291 21.0011 10.3291Z" fill="white"/>
<path d="M14.993 18.7282C17.0661 18.7282 18.7468 17.0476 18.7468 14.9745C18.7468 12.9013 17.0661 11.2207 14.993 11.2207C12.9199 11.2207 11.2393 12.9013 11.2393 14.9745C11.2393 17.0476 12.9199 18.7282 14.993 18.7282Z" fill="white"/>
</svg>
