<svg width="213" height="46" viewBox="0 0 213 46" fill="none" xmlns="http://www.w3.org/2000/svg">
<g filter="url(#filter0_d_1026:291)">
<ellipse cx="22.8171" cy="19" rx="18.8171" ry="19" fill="#F8BB5A"/>
</g>
<g clip-path="url(#clip0_1026:291)">
<g filter="url(#filter1_d_1026:291)">
<path d="M30.8322 15.6588C30.8231 14.9735 30.6961 14.2951 30.4567 13.6538C30.2492 13.1129 29.9321 12.6216 29.5259 12.2115C29.1196 11.8013 28.6331 11.4811 28.0974 11.2716C27.4705 11.0339 26.8082 10.9054 26.1387 10.8916C25.2767 10.8527 25.0034 10.8418 22.8152 10.8418C20.627 10.8418 20.3466 10.8418 19.4909 10.8916C18.8216 10.9055 18.1596 11.034 17.533 11.2716C16.9972 11.481 16.5106 11.8011 16.1043 12.2113C15.6981 12.6215 15.3811 13.1128 15.1737 13.6538C14.9379 14.2863 14.8109 14.9549 14.7982 15.6307C14.7597 16.502 14.748 16.7779 14.748 18.9874C14.748 21.1968 14.748 21.4791 14.7982 22.344C14.8117 23.0208 14.938 23.6885 15.1737 24.3228C15.3814 24.8636 15.6987 25.3547 16.1051 25.7647C16.5115 26.1748 16.9981 26.4947 17.5339 26.7041C18.1588 26.9513 18.8209 27.089 19.4917 27.1112C20.3546 27.1501 20.6279 27.1619 22.8161 27.1619C25.0043 27.1619 25.2847 27.1619 26.1405 27.1112C26.8099 27.0979 27.4723 26.9697 28.0992 26.7321C28.6348 26.5223 29.1212 26.2021 29.5274 25.7919C29.9336 25.3818 30.2507 24.8907 30.4585 24.3499C30.6942 23.7166 30.8205 23.0489 30.834 22.3712C30.8725 21.5008 30.8842 21.2248 30.8842 19.0145C30.8824 16.8051 30.8824 16.5246 30.8322 15.6588V15.6588ZM22.8098 23.1656C20.5213 23.1656 18.6674 21.2936 18.6674 18.9828C18.6674 16.6721 20.5213 14.8001 22.8098 14.8001C23.9085 14.8001 24.9621 15.2408 25.739 16.0252C26.5158 16.8096 26.9523 17.8735 26.9523 18.9828C26.9523 20.0922 26.5158 21.1561 25.739 21.9405C24.9621 22.7249 23.9085 23.1656 22.8098 23.1656V23.1656ZM27.1172 15.6208C26.9903 15.6209 26.8646 15.5957 26.7474 15.5468C26.6301 15.4978 26.5236 15.4259 26.4339 15.3353C26.3441 15.2448 26.273 15.1372 26.2245 15.0188C26.176 14.9004 26.1511 14.7735 26.1512 14.6454C26.1512 14.5174 26.1762 14.3906 26.2247 14.2723C26.2732 14.1541 26.3443 14.0466 26.434 13.9561C26.5236 13.8655 26.6301 13.7937 26.7472 13.7447C26.8644 13.6958 26.9899 13.6705 27.1167 13.6705C27.2435 13.6705 27.369 13.6958 27.4862 13.7447C27.6033 13.7937 27.7098 13.8655 27.7994 13.9561C27.8891 14.0466 27.9602 14.1541 28.0087 14.2723C28.0572 14.3906 28.0822 14.5174 28.0822 14.6454C28.0822 15.1847 27.6503 15.6208 27.1172 15.6208Z" fill="#F8F8F8"/>
</g>
<path d="M22.81 21.6996C24.2961 21.6996 25.5008 20.4832 25.5008 18.9826C25.5008 17.4821 24.2961 16.2656 22.81 16.2656C21.3239 16.2656 20.1191 17.4821 20.1191 18.9826C20.1191 20.4832 21.3239 21.6996 22.81 21.6996Z" fill="#F8F8F8"/>
</g>
<g filter="url(#filter2_d_1026:291)">
<ellipse cx="78.278" cy="19" rx="18.817" ry="19" fill="#F8BB5A"/>
</g>
<g clip-path="url(#clip1_1026:291)">
<g filter="url(#filter3_d_1026:291)">
<path d="M85.0217 15.1724C85.0334 15.3307 85.0334 15.4881 85.0334 15.6456C85.0334 20.4634 81.4017 26.0151 74.7646 26.0151C72.7199 26.0151 70.8202 25.417 69.2217 24.3783C69.512 24.4118 69.7916 24.4236 70.0935 24.4236C71.7181 24.4275 73.2966 23.879 74.5747 22.8665C73.8215 22.8527 73.0913 22.6018 72.4862 22.1488C71.8811 21.6957 71.4311 21.0632 71.1993 20.3395C71.4224 20.373 71.6464 20.3956 71.8812 20.3956C72.2046 20.3956 72.5299 20.3503 72.8319 20.2716C72.0145 20.105 71.2794 19.6576 70.7518 19.0056C70.2241 18.3536 69.9365 17.5371 69.9376 16.6951V16.6499C70.4188 16.9204 70.977 17.0896 71.5684 17.1122C71.073 16.7798 70.6668 16.3287 70.386 15.7992C70.1051 15.2697 69.9585 14.6783 69.9591 14.0776C69.9591 13.4009 70.1374 12.7802 70.4502 12.2391C71.3571 13.3656 72.4882 14.2871 73.7703 14.9441C75.0524 15.601 76.4569 15.9787 77.8928 16.0527C77.8372 15.7813 77.8031 15.4999 77.8031 15.2176C77.8029 14.739 77.8961 14.265 78.0774 13.8227C78.2587 13.3804 78.5246 12.9786 78.8598 12.6401C79.195 12.3017 79.5929 12.0332 80.0309 11.8502C80.4689 11.6671 80.9384 11.573 81.4124 11.5732C82.4519 11.5732 83.39 12.013 84.0495 12.7241C84.8575 12.5663 85.6324 12.2685 86.3398 11.8438C86.0705 12.6859 85.5063 13.4001 84.7529 13.8523C85.4696 13.7698 86.17 13.5795 86.8308 13.2878C86.3372 14.0144 85.7256 14.6516 85.0217 15.1724V15.1724Z" fill="#F8F8F8"/>
</g>
</g>
<g filter="url(#filter4_d_1026:291)">
<ellipse cx="133.739" cy="19" rx="18.817" ry="19" fill="#F8BB5A"/>
</g>
<g filter="url(#filter5_d_1026:291)">
<path d="M134.705 27.1386V19.7232H137.207L137.579 16.8198H134.705V14.9705C134.705 14.1327 134.939 13.5591 136.141 13.5591H137.665V10.9705C136.923 10.8911 136.178 10.8527 135.433 10.8556C133.221 10.8556 131.703 12.2055 131.703 14.6837V16.8144H129.218V19.7178H131.709V27.1386H134.705Z" fill="#F8F8F8"/>
</g>
<g filter="url(#filter6_d_1026:291)">
<ellipse cx="189.2" cy="19" rx="18.817" ry="19" fill="#F8BB5A"/>
</g>
<path d="M196.962 11.5071L181.075 17.6929C179.991 18.1327 179.997 18.7434 180.876 19.0157L184.955 20.3005L194.392 14.2883C194.838 14.0142 195.246 14.1617 194.911 14.462L187.265 21.4296H187.263L187.265 21.4305L186.983 25.6757C187.395 25.6757 187.577 25.4848 187.809 25.2595L189.79 23.3142L193.911 26.3877C194.671 26.8102 195.216 26.5931 195.405 25.6775L198.11 12.8045C198.387 11.6835 197.687 11.1759 196.962 11.5071V11.5071Z" fill="#F8F8F8"/>
<defs>
<filter id="filter0_d_1026:291" x="0" y="0" width="45.6338" height="46" filterUnits="userSpaceOnUse" color-interpolation-filters="sRGB">
<feFlood flood-opacity="0" result="BackgroundImageFix"/>
<feColorMatrix in="SourceAlpha" type="matrix" values="0 0 0 0 0 0 0 0 0 0 0 0 0 0 0 0 0 0 127 0" result="hardAlpha"/>
<feOffset dy="4"/>
<feGaussianBlur stdDeviation="2"/>
<feComposite in2="hardAlpha" operator="out"/>
<feColorMatrix type="matrix" values="0 0 0 0 0 0 0 0 0 0 0 0 0 0 0 0 0 0 0.25 0"/>
<feBlend mode="normal" in2="BackgroundImageFix" result="effect1_dropShadow_1026:291"/>
<feBlend mode="normal" in="SourceGraphic" in2="effect1_dropShadow_1026:291" result="shape"/>
</filter>
<filter id="filter1_d_1026:291" x="10.748" y="10.8418" width="24.1357" height="24.3203" filterUnits="userSpaceOnUse" color-interpolation-filters="sRGB">
<feFlood flood-opacity="0" result="BackgroundImageFix"/>
<feColorMatrix in="SourceAlpha" type="matrix" values="0 0 0 0 0 0 0 0 0 0 0 0 0 0 0 0 0 0 127 0" result="hardAlpha"/>
<feOffset dy="4"/>
<feGaussianBlur stdDeviation="2"/>
<feComposite in2="hardAlpha" operator="out"/>
<feColorMatrix type="matrix" values="0 0 0 0 0 0 0 0 0 0 0 0 0 0 0 0 0 0 0.25 0"/>
<feBlend mode="normal" in2="BackgroundImageFix" result="effect1_dropShadow_1026:291"/>
<feBlend mode="normal" in="SourceGraphic" in2="effect1_dropShadow_1026:291" result="shape"/>
</filter>
<filter id="filter2_d_1026:291" x="55.4609" y="0" width="45.6338" height="46" filterUnits="userSpaceOnUse" color-interpolation-filters="sRGB">
<feFlood flood-opacity="0" result="BackgroundImageFix"/>
<feColorMatrix in="SourceAlpha" type="matrix" values="0 0 0 0 0 0 0 0 0 0 0 0 0 0 0 0 0 0 127 0" result="hardAlpha"/>
<feOffset dy="4"/>
<feGaussianBlur stdDeviation="2"/>
<feComposite in2="hardAlpha" operator="out"/>
<feColorMatrix type="matrix" values="0 0 0 0 0 0 0 0 0 0 0 0 0 0 0 0 0 0 0.25 0"/>
<feBlend mode="normal" in2="BackgroundImageFix" result="effect1_dropShadow_1026:291"/>
<feBlend mode="normal" in="SourceGraphic" in2="effect1_dropShadow_1026:291" result="shape"/>
</filter>
<filter id="filter3_d_1026:291" x="65.2217" y="11.5732" width="25.6094" height="22.4414" filterUnits="userSpaceOnUse" color-interpolation-filters="sRGB">
<feFlood flood-opacity="0" result="BackgroundImageFix"/>
<feColorMatrix in="SourceAlpha" type="matrix" values="0 0 0 0 0 0 0 0 0 0 0 0 0 0 0 0 0 0 127 0" result="hardAlpha"/>
<feOffset dy="4"/>
<feGaussianBlur stdDeviation="2"/>
<feComposite in2="hardAlpha" operator="out"/>
<feColorMatrix type="matrix" values="0 0 0 0 0 0 0 0 0 0 0 0 0 0 0 0 0 0 0.25 0"/>
<feBlend mode="normal" in2="BackgroundImageFix" result="effect1_dropShadow_1026:291"/>
<feBlend mode="normal" in="SourceGraphic" in2="effect1_dropShadow_1026:291" result="shape"/>
</filter>
<filter id="filter4_d_1026:291" x="110.922" y="0" width="45.6338" height="46" filterUnits="userSpaceOnUse" color-interpolation-filters="sRGB">
<feFlood flood-opacity="0" result="BackgroundImageFix"/>
<feColorMatrix in="SourceAlpha" type="matrix" values="0 0 0 0 0 0 0 0 0 0 0 0 0 0 0 0 0 0 127 0" result="hardAlpha"/>
<feOffset dy="4"/>
<feGaussianBlur stdDeviation="2"/>
<feComposite in2="hardAlpha" operator="out"/>
<feColorMatrix type="matrix" values="0 0 0 0 0 0 0 0 0 0 0 0 0 0 0 0 0 0 0.25 0"/>
<feBlend mode="normal" in2="BackgroundImageFix" result="effect1_dropShadow_1026:291"/>
<feBlend mode="normal" in="SourceGraphic" in2="effect1_dropShadow_1026:291" result="shape"/>
</filter>
<filter id="filter5_d_1026:291" x="125.218" y="10.8555" width="16.4473" height="24.2832" filterUnits="userSpaceOnUse" color-interpolation-filters="sRGB">
<feFlood flood-opacity="0" result="BackgroundImageFix"/>
<feColorMatrix in="SourceAlpha" type="matrix" values="0 0 0 0 0 0 0 0 0 0 0 0 0 0 0 0 0 0 127 0" result="hardAlpha"/>
<feOffset dy="4"/>
<feGaussianBlur stdDeviation="2"/>
<feComposite in2="hardAlpha" operator="out"/>
<feColorMatrix type="matrix" values="0 0 0 0 0 0 0 0 0 0 0 0 0 0 0 0 0 0 0.25 0"/>
<feBlend mode="normal" in2="BackgroundImageFix" result="effect1_dropShadow_1026:291"/>
<feBlend mode="normal" in="SourceGraphic" in2="effect1_dropShadow_1026:291" result="shape"/>
</filter>
<filter id="filter6_d_1026:291" x="166.383" y="0" width="45.6338" height="46" filterUnits="userSpaceOnUse" color-interpolation-filters="sRGB">
<feFlood flood-opacity="0" result="BackgroundImageFix"/>
<feColorMatrix in="SourceAlpha" type="matrix" values="0 0 0 0 0 0 0 0 0 0 0 0 0 0 0 0 0 0 127 0" result="hardAlpha"/>
<feOffset dy="4"/>
<feGaussianBlur stdDeviation="2"/>
<feComposite in2="hardAlpha" operator="out"/>
<feColorMatrix type="matrix" values="0 0 0 0 0 0 0 0 0 0 0 0 0 0 0 0 0 0 0.25 0"/>
<feBlend mode="normal" in2="BackgroundImageFix" result="effect1_dropShadow_1026:291"/>
<feBlend mode="normal" in="SourceGraphic" in2="effect1_dropShadow_1026:291" result="shape"/>
</filter>
<clipPath id="clip0_1026:291">
<rect width="21.5052" height="21.7143" fill="white" transform="translate(12.0625 8.14453)"/>
</clipPath>
<clipPath id="clip1_1026:291">
<rect width="21.5052" height="21.7143" fill="white" transform="translate(67.5234 8.14453)"/>
</clipPath>
</defs>
</svg>
