<svg width="30" height="30" viewBox="0 0 30 30" fill="none" xmlns="http://www.w3.org/2000/svg">
<path d="M24.5412 9.99594C24.5575 10.2147 24.5575 10.4322 24.5575 10.6497C24.5575 17.3059 19.4912 24.9759 10.2325 24.9759C7.38 24.9759 4.73 24.1497 2.5 22.7147C2.905 22.7609 3.295 22.7772 3.71625 22.7772C5.98249 22.7827 8.18456 22.0249 9.9675 20.6259C8.91678 20.6069 7.89822 20.2603 7.05405 19.6344C6.20988 19.0085 5.58223 18.1346 5.25875 17.1347C5.57 17.1809 5.8825 17.2122 6.21 17.2122C6.66125 17.2122 7.115 17.1497 7.53625 17.0409C6.39595 16.8107 5.37059 16.1926 4.63452 15.2918C3.89845 14.391 3.49712 13.263 3.49875 12.0997V12.0372C4.17 12.4109 4.94875 12.6447 5.77375 12.6759C5.08261 12.2167 4.5159 11.5935 4.12417 10.8619C3.73245 10.1304 3.52789 9.31326 3.52875 8.48344C3.52875 7.54844 3.7775 6.69094 4.21375 5.94344C5.47892 7.49971 7.05688 8.77289 8.84542 9.68051C10.634 10.5881 12.5932 11.11 14.5963 11.2122C14.5188 10.8372 14.4712 10.4484 14.4712 10.0584C14.4709 9.39714 14.6009 8.74226 14.8538 8.13124C15.1068 7.52022 15.4776 6.96503 15.9452 6.49742C16.4128 6.02981 16.968 5.65895 17.5791 5.40604C18.1901 5.15312 18.845 5.02311 19.5062 5.02344C20.9562 5.02344 22.265 5.63094 23.185 6.61344C24.3122 6.39546 25.3932 5.98397 26.38 5.39719C26.0043 6.56071 25.2172 7.54732 24.1663 8.17219C25.166 8.05816 26.143 7.79525 27.065 7.39219C26.3764 8.39606 25.5232 9.27637 24.5412 9.99594Z" fill="white"/>
</svg>
