<svg width="40" height="34" viewBox="0 0 40 34" fill="none" xmlns="http://www.w3.org/2000/svg">
<g filter="url(#filter0_d_909_4083)">
<path d="M31.9189 6.2985C31.9395 6.57558 31.9395 6.85108 31.9395 7.12658C31.9395 15.5578 25.5223 25.2732 13.7945 25.2732C10.1813 25.2732 6.82467 24.2266 4 22.4089C4.513 22.4675 5.007 22.4881 5.54058 22.4881C8.41115 22.495 11.2004 21.5351 13.4588 19.7632C12.1279 19.7391 10.8377 19.3 9.76846 18.5072C8.69918 17.7144 7.90416 16.6074 7.49442 15.3409C7.88867 15.3995 8.2845 15.4391 8.69933 15.4391C9.27092 15.4391 9.84567 15.3599 10.3793 15.2222C8.93487 14.9305 7.63608 14.1476 6.70373 13.0066C5.77138 11.8655 5.26301 10.4368 5.26508 8.96325V8.88408C6.11533 9.3575 7.10175 9.65358 8.14675 9.69317C7.27131 9.11143 6.55347 8.32204 6.05729 7.39542C5.5611 6.4688 5.302 5.43377 5.30308 4.38267C5.30308 3.19833 5.61817 2.11217 6.17075 1.16533C7.7733 3.13662 9.77205 4.74931 12.0375 5.89896C14.303 7.04861 16.7847 7.70959 19.3219 7.83908C19.2238 7.36408 19.1636 6.87167 19.1636 6.37767C19.1632 5.54002 19.3278 4.71051 19.6482 3.93655C19.9686 3.16259 20.4383 2.45935 21.0306 1.86705C21.6229 1.27474 22.3262 0.804985 23.1001 0.484624C23.8741 0.164264 24.7036 -0.000415434 25.5413 7.87017e-07C27.3779 7.87017e-07 29.0357 0.7695 30.201 2.014C31.6288 1.73789 32.998 1.21667 34.248 0.473417C33.7721 1.94721 32.7751 3.19692 31.4439 3.98842C32.7102 3.84398 33.9479 3.51097 35.1157 3.00042C34.2435 4.27199 33.1627 5.38705 31.9189 6.2985Z" fill="#50ABF1"/>
</g>
<defs>
<filter id="filter0_d_909_4083" x="0" y="0" width="39.1152" height="33.2734" filterUnits="userSpaceOnUse" color-interpolation-filters="sRGB">
<feFlood flood-opacity="0" result="BackgroundImageFix"/>
<feColorMatrix in="SourceAlpha" type="matrix" values="0 0 0 0 0 0 0 0 0 0 0 0 0 0 0 0 0 0 127 0" result="hardAlpha"/>
<feOffset dy="4"/>
<feGaussianBlur stdDeviation="2"/>
<feComposite in2="hardAlpha" operator="out"/>
<feColorMatrix type="matrix" values="0 0 0 0 0 0 0 0 0 0 0 0 0 0 0 0 0 0 0.25 0"/>
<feBlend mode="normal" in2="BackgroundImageFix" result="effect1_dropShadow_909_4083"/>
<feBlend mode="normal" in="SourceGraphic" in2="effect1_dropShadow_909_4083" result="shape"/>
</filter>
</defs>
</svg>
